<?xml version="1.0" encoding="utf-8"?>
<!-- Uploaded to: SVG Repo, www.svgrepo.com, Generator: SVG Repo Mixer Tools -->
<svg fill="#000000" version="1.1" id="Layer_1" xmlns="http://www.w3.org/2000/svg" xmlns:xlink="http://www.w3.org/1999/xlink" 
	 width="800px" height="800px" viewBox="0 0 221 256" enable-background="new 0 0 221 256" xml:space="preserve">
<path d="M69.439,33.796c0-7.293,5.96-13.253,13.332-13.253s13.332,5.882,13.332,13.253c0,7.293-5.96,13.253-13.332,13.253
	S69.439,41.089,69.439,33.796z M96.338,51.441c-1.49-1.412-3.215-2.353-5.725-2.353h-7.842h-8.078c-2.51,0-4.078,0.941-5.568,2.353
	L51.323,69.243c-4.862,4.862,1.725,11.058,6.588,6.274l10.744-10.822v10.117h14.038h13.959V64.616l11.136,11.058
	c4.47,4.705,11.214-1.568,6.588-6.274L96.338,51.441z M96.652,80.065L86.143,90.652l7.764,7.764l-7.921,7.921
	c-4.705,4.705,1.804,11.371,6.588,6.509l12.548-13.018c2.745-2.745,3.451-7.842,0.549-10.744L96.652,80.065z M71.478,98.338
	l7.764-7.764L68.733,80.065l-9.097,9.019c-2.902,2.902-2.117,7.999,0.549,10.744l12.548,13.018
	c4.862,4.862,11.293-1.882,6.666-6.509L71.478,98.338z M207.166,103.194V128c0,2.559-1.969,4.528-4.528,4.528
	s-4.528-1.969-4.528-4.528V91.972c0-1.575-0.197-2.953-0.984-4.331c-1.378-3.347-4.528-5.906-8.072-6.694
	c-0.591-0.197-1.575-0.197-2.166-0.197v42.722c0,2.559-1.969,4.528-4.528,4.528s-4.528-1.969-4.528-4.528V69.528
	c0-1.181-0.197-1.969-0.394-2.953c-0.197-1.181-0.984-2.166-1.575-3.347c-0.984-1.181-1.772-2.166-3.15-3.15
	c-0.984-0.591-2.166-1.181-3.347-1.575c-0.591,0-1.575-0.197-2.756-0.197c-0.591,0-1.575,0-2.166,0.197V2H2.416v189H126.25
	c4.134,11.419,13.191,20.475,24.806,24.806V254h67.528V114.416C218.388,108.116,213.466,103.194,207.166,103.194z M150.859,152.806
	c-2.559,0-4.528-1.969-4.528-4.528v-40.556c0-6.3-4.922-11.222-11.222-11.222c-6.984,0-11.222,5.212-11.222,11.294v15.875H33.916
	v9.056h89.972v13.584H33.916v9.056h89.972v22.444c0,1.575,0.197,2.953,0.197,4.528H11.275V11.056h143.916v58.472v78.75h0.197
	C155.388,150.838,153.419,152.806,150.859,152.806z"/>
</svg>