<?xml version="1.0" encoding="UTF-8"?>
<svg width="200px" height="84px" viewBox="0 0 200 84" version="1.1" xmlns="http://www.w3.org/2000/svg" xmlns:xlink="http://www.w3.org/1999/xlink">
    <!-- Generator: Sketch 61.2 (89653) - https://sketch.com -->
    <title>DaCodes White</title>
    <desc>Created with Sketch.</desc>
    <defs>
        <path d="M6.2262882,0.0418077 C5.6940048,0.0418077 5.2307211,0.3844269 5.0743671,0.893937 L5.0743671,0.893937 C4.979535,1.2015465 5.0108058,1.5278505 5.1613815,1.8126867 L5.1613815,1.8126867 C5.3122971,2.0975229 5.5648428,2.3062215 5.8727922,2.4010536 L5.8727922,2.4010536 L19.4823882,6.5848827 C20.4089556,6.8697189 21.2597253,7.9543398 21.2665233,8.8601733 L21.2665233,8.8601733 L21.1230855,41.6499864 C21.1203663,42.3148308 21.6587679,42.8583309 22.3239522,42.86139 L22.3239522,42.86139 C22.9911759,42.86139 23.5326366,42.3229884 23.5353558,41.6605233 L23.5353558,41.6605233 L23.6787936,8.8560945 C23.6631582,6.8826351 22.1312289,4.8758655 20.1914196,4.279341 L20.1914196,4.279341 L6.5818236,0.0955119 C6.4672773,0.0601623 6.3472926,0.0418077 6.2266281,0.0418077 L6.2266281,0.0418077 L6.2262882,0.0418077 Z M0.1288221,5.8901271 L0.125754737,6.5791044 C0.1244034,6.8347092 0.2909544,7.0610826 0.5353425,7.1362005 L0.5353425,7.1362005 L13.1412138,11.0114004 C14.5891878,11.4566694 15.7655817,12.9855396 15.7771383,14.4369126 L15.7771383,14.4369126 L15.6404985,45.6237573 C15.6394788,45.9157314 15.8294829,46.1740554 16.1082009,46.2600501 L16.1082009,46.2600501 L16.2305649,46.2974391 C17.5517562,46.7036196 18.619722,45.9551598 18.609525,44.6309094 L18.609525,44.6309094 L18.7529628,11.8329387 C18.7417461,10.3819056 17.5650123,8.8530354 16.1170383,8.4077664 L16.1170383,8.4077664 L2.5074423,4.2239373 C2.2640739,4.1491593 2.0288631,4.1134698 1.8075882,4.1134698 L1.8075882,4.1134698 C0.829356,4.1134698 0.1203246,4.8102648 0.1288221,5.8901271 L0.1288221,5.8901271 Z" id="path-1"></path>
        <polygon id="path-3" points="0 0.329658739 18.765743 0.329658739 18.765743 42.624127 0 42.624127"></polygon>
        <polygon id="path-5" points="0.0724617909 0.121232455 2.55550547 0.121232455 2.55550547 2.7192 0.0724617909 2.7192"></polygon>
    </defs>
    <g id="DaCodes-White" stroke="none" stroke-width="1" fill="none" fill-rule="evenodd">
        <g id="DaCodes-Blanco" transform="translate(3.000000, 14.000000)">
            <g id="Group-17" transform="translate(41.127900, 12.534492)" fill="#FFFFFF">
                <path d="M10.1140304,20.8497039 C12.3580502,20.8497039 14.1476237,20.1919974 15.4837706,18.8765844 C16.8192377,17.5611714 17.4874811,15.7790757 17.4874811,13.5306372 C17.4874811,11.2818588 16.8192377,9.49908333 15.4837706,8.18401023 C14.1476237,6.86859723 12.3580502,6.21089073 10.1140304,6.21089073 L5.36902641,6.21089073 L5.36902641,20.8497039 L10.1140304,20.8497039 Z M0.17535441,1.72421073 L10.370315,1.72421073 C12.8067182,1.72421073 14.9599847,2.21366673 16.8301145,3.19155903 C18.7002443,4.17013113 20.1536567,5.54740593 21.1900118,7.32372333 C22.2267068,9.10038063 22.7453942,11.169012 22.7453942,13.5306372 C22.7453942,15.8915826 22.2267068,17.9605539 21.1900118,19.7368713 C20.1536567,21.5131887 18.7002443,22.8904635 16.8301145,23.8690356 C14.9599847,24.8472678 12.8067182,25.336044 10.370315,25.336044 L0.17535441,25.336044 L0.17535441,1.72421073 Z" id="Fill-1"></path>
                <path d="M35.1516083,21.4402122 C35.8137335,21.0241746 36.2841551,20.4116748 36.5621933,19.602033 L36.5621933,17.7468588 L33.1319225,17.7468588 C31.0802861,17.7468588 30.054128,18.4548705 30.054128,19.8715737 C30.054128,20.5462752 30.3053141,21.0802581 30.8076863,21.4742022 C31.3097186,21.8674665 31.9990358,22.0642686 32.875298,22.0642686 C33.7298066,22.0642686 34.4888033,21.8565897 35.1516083,21.4402122 M39.4153139,8.9264538 C40.8473126,10.2639603 41.5634819,12.2822865 41.5634819,14.9807526 L41.5634819,23.170983 C41.5634819,24.3667512 40.594427,25.336146 39.3986588,25.336146 L36.8830589,25.336146 L36.8830589,23.075811 C35.9422157,24.7623948 34.1900312,25.6060266 31.6251458,25.6060266 C30.2998757,25.6060266 29.1510137,25.370136 28.1785598,24.8973351 C27.2061059,24.425214 26.4637643,23.7732858 25.9508552,22.9412106 C25.4376062,22.1094753 25.1813216,21.1648932 25.1813216,20.1078042 C25.1813216,18.4212204 25.784984,17.0945907 26.9926487,16.1275752 C28.1996336,15.1605597 30.0646649,14.6772219 32.5867229,14.6772219 L36.5621933,14.6772219 C36.5621933,13.5303993 36.2307908,12.6480189 35.5686656,12.0294009 C34.9055207,11.4111228 33.911993,11.1018138 32.5867229,11.1018138 C31.6676333,11.1018138 30.764519,11.2534092 29.8780598,11.5569399 C29.8688825,11.559999 29.860385,11.5627182 29.8512077,11.5661172 C28.4807309,12.0402777 26.971235,11.4638073 26.3346023,10.1606307 L25.822373,9.1116993 C26.7625364,8.4149043 27.8903246,7.8751431 29.2047179,7.4924157 C30.5191112,7.1103681 31.8705536,6.9186645 33.2604047,6.9186645 C35.9316788,6.9186645 37.9833152,7.5882675 39.4153139,8.9264538" id="Fill-3"></path>
                <path d="M49.8567699,24.1723624 C48.0080538,23.12683 46.5546414,21.6761368 45.4968726,19.8209626 C44.4387639,17.9657884 43.9095396,15.8692852 43.9095396,13.5304333 C43.9095396,11.1919213 44.4387639,9.09507819 45.4968726,7.23990399 C46.5546414,5.38472979 48.0080538,3.93369669 49.8567699,2.88816429 C51.7051461,1.84263189 53.7839745,1.32020559 56.0922354,1.32020559 C58.0368033,1.32020559 59.7954459,1.67947989 61.3661238,2.39904819 C62.9368017,3.11895639 64.2562935,4.15327209 65.3256189,5.50233519 L63.6200007,7.15866789 C62.8011816,7.95403389 61.5088818,8.07877719 60.6013488,7.38572109 C59.3692113,6.44521779 57.9518283,5.97445629 56.3488599,5.97445629 C54.9593487,5.97445629 53.7197334,6.29498199 52.6296741,6.93569349 C51.5399547,7.57708479 50.6902047,8.47068189 50.0811039,9.61784439 C49.472343,10.764667 49.1674527,12.0688633 49.1674527,13.5304333 C49.1674527,14.9920033 49.472343,16.2961996 50.0811039,17.4430222 C50.6902047,18.5895049 51.5399547,19.4837818 52.6296741,20.1248332 C53.7197334,20.7658846 54.9593487,21.0860704 56.3488599,21.0860704 C57.9518283,21.0860704 59.3692113,20.6102104 60.6013488,19.6578106 C61.508202,18.9565969 62.8069599,19.078621 63.629178,19.8767062 L65.3256189,21.5245414 C64.2562935,22.8963778 62.9317032,23.9419102 61.3501485,24.6614785 C59.7682539,25.3810468 58.0048527,25.740661 56.0606247,25.740661 C53.7727578,25.740661 51.7051461,25.2182347 49.8567699,24.1723624" id="Fill-5"></path>
                <path d="M79.2226004,19.9222868 C80.0454983,19.0113548 80.4571172,17.7917936 80.4571172,16.2622436 C80.4571172,14.7333734 80.0454983,13.5138122 79.2226004,12.6028802 C78.3997025,11.6919482 77.3470322,11.2364822 76.0649294,11.2364822 C74.7824867,11.2364822 73.7247179,11.6919482 72.8912831,12.6028802 C72.0575084,13.5138122 71.640791,14.7333734 71.640791,16.2622436 C71.640791,17.7917936 72.0575084,19.0113548 72.8912831,19.9222868 C73.7247179,20.8328789 74.7824867,21.2886848 76.0649294,21.2886848 C77.3470322,21.2886848 78.3997025,20.8328789 79.2226004,19.9222868 M71.1758078,24.408287 C69.7332722,23.6108816 68.6058239,22.5024677 67.7934629,21.0861044 C66.9811019,19.6694012 66.5756012,18.0616742 66.5756012,16.2622436 C66.5756012,14.4634928 66.9811019,12.8554259 67.7934629,11.4390626 C68.6058239,10.0223594 69.7332722,8.91462528 71.1758078,8.11654008 C72.6186833,7.31879478 74.2481639,6.91873248 76.0649294,6.91873248 C77.881355,6.91873248 79.5057371,7.31879478 80.9380757,8.11654008 C82.3697345,8.91462528 83.4917444,10.0223594 84.3041054,11.4390626 C85.1161265,12.8554259 85.522307,14.4634928 85.522307,16.2622436 C85.522307,18.0616742 85.1161265,19.6694012 84.3041054,21.0861044 C83.4917444,22.5024677 82.3697345,23.6108816 80.9380757,24.408287 C79.5057371,25.2067121 77.881355,25.6060946 76.0649294,25.6060946 C74.2481639,25.6060946 72.6186833,25.2067121 71.1758078,24.408287" id="Fill-7"></path>
                <path d="M100.269514,19.9222868 C101.103289,19.0113548 101.520006,17.7917936 101.520006,16.2622436 C101.520006,14.7333734 101.103289,13.5138122 100.269514,12.6028802 C99.4364194,11.6919482 98.3888476,11.2364822 97.1281585,11.2364822 C95.8453759,11.2364822 94.7876071,11.6919482 93.9538324,12.6028802 C93.1207375,13.5138122 92.7036802,14.7333734 92.7036802,16.2622436 C92.7036802,17.7917936 93.1207375,19.0113548 93.9538324,19.9222868 C94.7876071,20.8328789 95.8453759,21.2886848 97.1281585,21.2886848 C98.3888476,21.2886848 99.4364194,20.8328789 100.269514,19.9222868 L100.269514,19.9222868 Z M106.425103,0.30767748 L106.425103,22.7302007 C106.425103,24.1693373 105.258566,25.336214 103.81909,25.336214 L101.648149,25.336214 L101.648149,23.2444694 C100.408533,24.8192261 98.6131816,25.6060946 96.2620933,25.6060946 C94.6377112,25.6060946 93.1686634,25.2237071 91.8539302,24.459272 C90.5398768,23.6948369 89.5082803,22.6040978 88.7608402,21.1870547 C88.0120405,19.7706914 87.6381505,18.1293143 87.6381505,16.2622436 C87.6381505,14.3961926 88.0120405,12.7544756 88.7608402,11.3374325 C89.5082803,9.92106918 90.5398768,8.83066998 91.8539302,8.06589498 C93.1686634,7.30179978 94.6377112,6.91873248 96.2620933,6.91873248 C98.4636256,6.91873248 100.183859,7.65019728 101.423815,9.11176728 L101.423815,3.92557308 C101.423815,1.92764088 103.043438,0.30767748 105.04171,0.30767748 L106.425103,0.30767748 Z" id="Fill-9"></path>
                <path d="M115.766473,11.9110817 C114.997279,12.5857832 114.526858,13.5079319 114.355888,14.6771879 L122.852028,14.6771879 C122.680379,13.5307052 122.210637,12.6139949 121.441104,11.9280767 C120.67157,11.2424984 119.730727,10.8991994 118.619934,10.8991994 C117.487047,10.8991994 116.536347,11.2367201 115.766473,11.9110817 M127.46821,17.7468248 L114.420129,17.7468248 C114.655,18.871214 115.210737,19.7597126 116.086999,20.4116408 C116.963261,21.0642488 118.05332,21.3895331 119.357177,21.3895331 C120.254853,21.3895331 121.051238,21.2498342 121.745994,20.9680571 C121.789161,20.9507222 121.831989,20.9327075 121.874816,20.9136731 C123.128707,20.3647346 124.591637,20.6699648 125.494071,21.699182 L126.3462,22.6709561 C124.721818,24.6277604 122.349316,25.6059926 119.229034,25.6059926 C117.284127,25.6059926 115.563213,25.2066101 114.067653,24.4085249 C112.571413,23.6107796 111.417113,22.5023657 110.604752,21.0860024 C109.792731,19.6692992 109.38689,18.0619121 109.38689,16.2624815 C109.38689,14.4861641 109.787632,12.8842154 110.589116,11.4559556 C111.3906,10.0280357 112.490857,8.91486321 113.890905,8.11643811 C115.290953,7.31869281 116.856872,6.91863051 118.587983,6.91863051 C120.276266,6.91863051 121.804117,7.30169781 123.172214,8.06579301 C124.539632,8.83056801 125.614056,9.92674551 126.394466,11.3543255 C127.174197,12.7825853 127.564742,14.4409574 127.564742,16.3301216 C127.564742,16.3970819 127.532451,16.8698828 127.46821,17.7468248" id="Fill-11"></path>
                <path d="M132.873334,25.0496783 C131.505577,24.6785075 130.415517,24.2118248 129.603156,23.6496302 L130.249986,22.1836415 C130.768333,21.009287 132.10618,20.4474323 133.311465,20.8889624 C133.551775,20.9769965 133.800921,21.0595922 134.059585,21.1367495 C135.149305,21.4630535 136.21829,21.6258656 137.265522,21.6258656 C139.38106,21.6258656 140.439508,21.0752276 140.439508,19.972592 C140.439508,19.4556041 140.150933,19.0844333 139.573783,18.8597594 C138.996973,18.6354254 138.109494,18.4437218 136.913046,18.2863481 C135.502121,18.0616742 134.337283,17.8030103 133.418534,17.5103564 C132.499104,17.2183823 131.703398,16.7010545 131.030056,15.9590528 C130.356715,15.2170511 130.019874,14.1599621 130.019874,12.7884656 C130.019874,11.641643 130.335301,10.6243223 130.965815,9.73548378 C131.59633,8.84766498 132.515419,8.15596848 133.723084,7.66107408 C134.930069,7.16651958 136.356629,6.91873248 138.002765,6.91873248 C139.221307,6.91873248 140.43407,7.05945108 141.641734,7.34054838 C142.848719,7.62232548 143.848025,8.01015138 144.639313,8.50436598 L144.077458,9.76607478 C143.511864,11.0362811 142.094141,11.6732537 140.759014,11.2840682 C139.880033,11.0274437 138.961283,10.8993014 138.002765,10.8993014 C136.934119,10.8993014 136.132295,11.057015 135.598652,11.3714225 C135.06399,11.6868497 134.796828,12.0913307 134.796828,12.5858852 C134.796828,13.1477399 135.085743,13.5420239 135.662554,13.7663579 C136.239704,13.9913717 137.158453,14.2048289 138.419482,14.4070694 C139.830067,14.6548565 140.984028,14.9189588 141.882384,15.2000561 C142.78006,15.4818332 143.55945,15.9927029 144.222595,16.7343647 C144.88472,17.4767063 145.216123,18.5117018 145.216123,19.8379916 C145.216123,20.9627207 144.895597,21.9630464 144.254206,22.8396485 C143.613154,23.7169304 142.67809,24.3974102 141.449011,24.8804081 C140.219933,25.3640858 138.761422,25.6060946 137.072799,25.6060946 C135.64114,25.6060946 134.240752,25.4205092 132.873334,25.0496783" id="Fill-13"></path>
                <path d="M147.972678,24.6616484 C147.374114,24.0321536 147.075002,23.2446053 147.075002,22.3003631 C147.075002,21.3336875 147.374114,20.5522574 147.972678,19.9560728 C148.571242,19.360568 149.308825,19.0621358 150.185087,19.0621358 C151.061009,19.0621358 151.798592,19.360568 152.397496,19.9560728 C152.99504,20.5522574 153.294832,21.3336875 153.294832,22.3003631 C153.294832,23.2446053 152.99504,24.0321536 152.397496,24.6616484 C151.798592,25.2914831 151.061009,25.6058906 150.185087,25.6058906 C149.308825,25.6058906 148.571242,25.2914831 147.972678,24.6616484" id="Fill-15"></path>
            </g>
            <g id="Group-20" transform="translate(5.778300, 0.298092)">
                <mask id="mask-2" fill="white">
                    <use xlink:href="#path-1"></use>
                </mask>
                <g id="Clip-19"></g>
                <path d="M6.2262882,0.0418077 C5.6940048,0.0418077 5.2307211,0.3844269 5.0743671,0.893937 L5.0743671,0.893937 C4.979535,1.2015465 5.0108058,1.5278505 5.1613815,1.8126867 L5.1613815,1.8126867 C5.3122971,2.0975229 5.5648428,2.3062215 5.8727922,2.4010536 L5.8727922,2.4010536 L19.4823882,6.5848827 C20.4089556,6.8697189 21.2597253,7.9543398 21.2665233,8.8601733 L21.2665233,8.8601733 L21.1230855,41.6499864 C21.1203663,42.3148308 21.6587679,42.8583309 22.3239522,42.86139 L22.3239522,42.86139 C22.9911759,42.86139 23.5326366,42.3229884 23.5353558,41.6605233 L23.5353558,41.6605233 L23.6787936,8.8560945 C23.6631582,6.8826351 22.1312289,4.8758655 20.1914196,4.279341 L20.1914196,4.279341 L6.5818236,0.0955119 C6.4672773,0.0601623 6.3472926,0.0418077 6.2266281,0.0418077 L6.2266281,0.0418077 L6.2262882,0.0418077 Z M0.1288221,5.8901271 L0.125754737,6.5791044 C0.1244034,6.8347092 0.2909544,7.0610826 0.5353425,7.1362005 L0.5353425,7.1362005 L13.1412138,11.0114004 C14.5891878,11.4566694 15.7655817,12.9855396 15.7771383,14.4369126 L15.7771383,14.4369126 L15.6404985,45.6237573 C15.6394788,45.9157314 15.8294829,46.1740554 16.1082009,46.2600501 L16.1082009,46.2600501 L16.2305649,46.2974391 C17.5517562,46.7036196 18.619722,45.9551598 18.609525,44.6309094 L18.609525,44.6309094 L18.7529628,11.8329387 C18.7417461,10.3819056 17.5650123,8.8530354 16.1170383,8.4077664 L16.1170383,8.4077664 L2.5074423,4.2239373 C2.2640739,4.1491593 2.0288631,4.1134698 1.8075882,4.1134698 L1.8075882,4.1134698 C0.829356,4.1134698 0.1203246,4.8102648 0.1288221,5.8901271 L0.1288221,5.8901271 Z" id="Fill-18" fill="#FFFFFF" mask="url(#mask-2)"></path>
            </g>
            <g id="Group-27" transform="translate(0.000000, 9.475392)">
                <g id="Group-23">
                    <mask id="mask-4" fill="white">
                        <use xlink:href="#path-3"></use>
                    </mask>
                    <g id="Clip-22"></g>
                    <path d="M16.2433451,42.5137063 L2.37644484,38.2506805 C1.07088894,37.8492586 0.01040094,36.471304 -0.00013596,35.162689 L0.14160234,2.10639429 C0.13106544,0.78248379 1.19937114,0.03402399 2.52022254,0.44020449 L16.1301584,4.62403359 C17.5777925,5.06930259 18.7541864,6.59817279 18.765743,8.04920589 L18.6223052,40.8475165 C18.6325022,42.171427 17.5641965,42.9195469 16.2433451,42.5137063" id="Fill-21" fill="#FFFFFF" mask="url(#mask-4)"></path>
                </g>
                <g id="Group-26" transform="translate(7.137900, 42.147600)">
                    <mask id="mask-6" fill="white">
                        <use xlink:href="#path-5"></use>
                    </mask>
                    <g id="Clip-25"></g>
                    <path d="M2.21631795,0.79064139 C3.23873715,2.43031899 1.74861555,3.47041299 0.41178885,2.04997089 C-0.61097025,0.41029329 0.87949125,-0.63014061 2.21631795,0.79064139" id="Fill-24" fill="#FFFFFF" mask="url(#mask-6)"></path>
                </g>
            </g>
        </g>
    </g>
</svg>